<?xml version="1.0" encoding="UTF-8"?>
<svg xmlns="http://www.w3.org/2000/svg" viewBox="0 0 25 25" width="25" height="25">
	<style>
		tspan { white-space:pre }
		.shp0 { fill: #000000 } 
	</style>
	<g id="side menu">
		<g id="grafico">
			<path id="grafico" class="shp0" d="M12,24c-1.65,0-3-1.35-3-3V3c0-1.65,1.35-3,3-3s3,1.35,3,3V21c0,1.65-1.35,3-3,3Zm9,0c-1.65,0-3-1.35-3-3V9c0-1.65,1.35-3,3-3s3,1.35,3,3v12c0,1.65-1.35,3-3,3Zm-18,0c-1.65,0-3-1.35-3-3v-6c0-1.65,1.35-3,3-3s3,1.35,3,3v6c0,1.65-1.35,3-3,3Z" />
		</g>
	</g>
</svg>