<?xml version="1.0" encoding="UTF-8"?>
<svg xmlns="http://www.w3.org/2000/svg" viewBox="0 0 25 25" width="25" height="25">
	<style>
		tspan { white-space:pre }
		.shp0 { fill: #000000 } 
	</style>
	<g id="side menu">
		<g id="tacografo">
			<path id="tacografo" class="shp0" d="m21,2H3c-1.654,0-3,1.346-3,3v17h24V5c0-1.654-1.346-3-3-3Zm1,18H2V5c0-.552.449-1,1-1h18c.552,0,1,.448,1,1v15Zm-18-4h7v2h-7v-2Zm9,0h7v2h-7v-2Zm1-6H4v-4h10v4Zm-8,4h-2v-2h2v2Zm2,0v-2h2v2h-2Zm6,0h-2v-2h2v2Z" />
		</g>
	</g>
</svg>